<svg fill="none" height="14" viewBox="0 0 14 14" width="14" xmlns="http://www.w3.org/2000/svg">
    <path
        d="M11.0833 7.58333C10.7613 7.58333 10.5 7.84467 10.5 8.16667V9.33333H3.15816L3.91241 8.57908C4.14049 8.351 4.14049 7.98233 3.91241 7.75425C3.68433 7.52617 3.31566 7.52617 3.08758 7.75425L1.33758 9.50425C1.28391 9.55792 1.24133 9.62267 1.21158 9.69383C1.15266 9.83675 1.15266 9.99717 1.21158 10.1395C1.24133 10.2107 1.28391 10.2754 1.33758 10.3291L3.08758 12.0791C3.20133 12.1928 3.35066 12.25 3.49999 12.25C3.64933 12.25 3.79866 12.1928 3.91241 12.0791C4.14049 11.851 4.14049 11.4823 3.91241 11.2542L3.15816 10.5H11.0833C11.4053 10.5 11.6667 10.2387 11.6667 9.91667V8.16667C11.6667 7.84467 11.4053 7.58333 11.0833 7.58333Z"
        fill="#FFFFFF" />
    <path
        d="M12.7884 3.8605C12.7587 3.78933 12.7161 3.72458 12.6624 3.67092L10.9124 1.92092C10.6843 1.69283 10.3157 1.69283 10.0876 1.92092C9.85949 2.149 9.85949 2.51767 10.0876 2.74575L10.8418 3.5H2.91666C2.59466 3.5 2.33333 3.76133 2.33333 4.08333V5.83333C2.33333 6.15533 2.59466 6.41667 2.91666 6.41667C3.23866 6.41667 3.49999 6.15533 3.49999 5.83333V4.66667H10.8418L10.0876 5.42092C9.85949 5.649 9.85949 6.01767 10.0876 6.24575C10.2013 6.3595 10.3507 6.41667 10.5 6.41667C10.6493 6.41667 10.7987 6.3595 10.9124 6.24575L12.6624 4.49575C12.7161 4.44208 12.7587 4.37733 12.7884 4.30617C12.8473 4.16383 12.8473 4.00283 12.7884 3.8605Z"
        fill="#FFFFFF" />
</svg>
