<svg fill="none" height="22" viewBox="0 0 22 22" width="22" xmlns="http://www.w3.org/2000/svg">
    <path
        d="M3.28725 12.8234C4.05422 9.09537 7.26041 6.44645 10.867 6.44645C14.4724 6.44645 17.6786 9.09537 18.4467 12.8234C18.4771 12.9714 18.5643 13.101 18.6892 13.1838C18.814 13.2667 18.9663 13.2959 19.1124 13.2651C19.2586 13.2343 19.3866 13.146 19.4685 13.0196C19.5503 12.8933 19.5792 12.7392 19.5488 12.5912C18.675 8.35089 15.0201 5.30811 10.867 5.30811C6.71386 5.30811 3.05896 8.35089 2.18515 12.5912C2.15473 12.7392 2.18361 12.8933 2.26544 13.0196C2.34727 13.146 2.47535 13.2343 2.62149 13.2651C2.76764 13.2959 2.91989 13.2667 3.04474 13.1838C3.16959 13.101 3.25683 12.9714 3.28725 12.8234ZM10.8557 8.72313C11.8996 8.72313 12.9008 9.14289 13.6389 9.89008C14.3771 10.6373 14.7918 11.6507 14.7918 12.7073C14.7918 13.764 14.3771 14.7774 13.6389 15.5246C12.9008 16.2718 11.8996 16.6915 10.8557 16.6915C9.8118 16.6915 8.81066 16.2718 8.0725 15.5246C7.33435 14.7774 6.91966 13.764 6.91966 12.7073C6.91966 11.6507 7.33435 10.6373 8.0725 9.89008C8.81066 9.14289 9.8118 8.72313 10.8557 8.72313Z"
        fill="#6A707C" />
</svg>
