<svg fill="none" height="16" viewBox="0 0 16 16" width="16" xmlns="http://www.w3.org/2000/svg">
    <path
        d="M14.5372 6.6945H14.0002V6.66683H8.00016V9.3335H11.7678C11.2182 10.8858 9.74116 12.0002 8.00016 12.0002C5.79116 12.0002 4.00016 10.2092 4.00016 8.00016C4.00016 5.79116 5.79116 4.00016 8.00016 4.00016C9.01983 4.00016 9.9475 4.38483 10.6538 5.01316L12.5395 3.1275C11.3488 2.01783 9.75616 1.3335 8.00016 1.3335C4.3185 1.3335 1.3335 4.3185 1.3335 8.00016C1.3335 11.6818 4.3185 14.6668 8.00016 14.6668C11.6818 14.6668 14.6668 11.6818 14.6668 8.00016C14.6668 7.55316 14.6208 7.11683 14.5372 6.6945Z"
        fill="#FFC107" />
    <path
        d="M2.10205 4.89716L4.29238 6.5035C4.88505 5.03616 6.32038 4.00016 8.00005 4.00016C9.01972 4.00016 9.94738 4.38483 10.6537 5.01316L12.5394 3.1275C11.3487 2.01783 9.75605 1.3335 8.00005 1.3335C5.43938 1.3335 3.21872 2.77916 2.10205 4.89716Z"
        fill="#FF3D00" />
    <path
        d="M7.99994 14.6669C9.72194 14.6669 11.2866 14.0079 12.4696 12.9362L10.4063 11.1902C9.71446 11.7164 8.86909 12.0009 7.99994 12.0002C6.26594 12.0002 4.79361 10.8946 4.23894 9.35156L2.06494 11.0266C3.16827 13.1856 5.40894 14.6669 7.99994 14.6669Z"
        fill="#4CAF50" />
    <path
        d="M14.537 6.69417H14V6.6665H8V9.33317H11.7677C11.5047 10.072 11.0311 10.7176 10.4053 11.1902L10.4063 11.1895L12.4697 12.9355C12.3237 13.0682 14.6667 11.3332 14.6667 7.99984C14.6667 7.55284 14.6207 7.1165 14.537 6.69417Z"
        fill="#1976D2" />
</svg>
