<svg fill="none" height="16" viewBox="0 0 13 16" width="13" xmlns="http://www.w3.org/2000/svg">
    <path
        d="M10.8564 8.46367C10.8564 8.53509 10.7527 10.6421 13 11.7491C12.5851 13.0705 11.133 15.9988 9.43883 15.9988C8.47074 15.9988 7.91755 15.356 6.81117 15.356C5.67021 15.356 5.04787 15.9988 4.18351 15.9988C2.52394 16.0703 0.933511 12.8562 0.484043 11.5349C0.138298 10.5349 0 9.57073 0 8.64222C0 5.46389 2.03989 3.92828 3.97606 3.89257C4.90957 3.89257 6.08511 4.57109 6.60372 4.57109C7.08777 4.57109 8.43617 3.74973 9.68085 3.85686C10.9601 3.964 11.9282 4.46396 12.5851 5.42817C11.4441 6.17812 10.8564 7.14233 10.8564 8.46367ZM8.92021 2.60695C8.22872 3.42832 7.39894 3.89257 6.5 3.82115C6.43085 2.85693 6.7766 1.96414 7.39894 1.24991C7.95213 0.607098 8.92021 0.0714233 9.75 0C9.75 0.392828 9.85372 1.46418 8.92021 2.60695Z"
        fill="#03314B" />
</svg>
