<svg fill="none" height="20" viewBox="0 0 16 20" width="16" xmlns="http://www.w3.org/2000/svg">
    <path
        d="M7.87955 15.6573L7.87996 15.6577C7.98342 15.7543 8.03487 15.878 8.03505 15.9995C8.03523 16.121 7.98417 16.2448 7.88107 16.3416L4.67638 19.341L4.67602 19.3413C4.62493 19.3892 4.5623 19.4287 4.49101 19.456L4.491 19.456L4.48673 19.4577C4.41637 19.4854 4.33974 19.5 4.26161 19.5C4.18348 19.5 4.10685 19.4854 4.03649 19.4577L4.03221 19.456C3.96091 19.4287 3.89829 19.3892 3.8472 19.3413L3.84683 19.341L0.64526 16.3445C0.54702 16.248 0.498913 16.1265 0.500019 16.0074C0.501135 15.8872 0.552427 15.7651 0.654597 15.6694C0.757839 15.5728 0.904037 15.5128 1.0632 15.5115C1.22103 15.5102 1.36748 15.5669 1.47268 15.6607L2.85046 16.9502L3.69212 17.7379V16.5851V5.99958C3.69212 5.87807 3.74339 5.75427 3.84672 5.65756C3.95117 5.55981 4.0995 5.49963 4.26054 5.49963C4.42158 5.49963 4.56991 5.55981 4.67436 5.65756C4.77769 5.75427 4.82896 5.87807 4.82896 5.99958V16.5851V17.7379L5.67062 16.9502L7.05203 15.6573C7.15647 15.5596 7.30478 15.4994 7.46579 15.4994C7.6268 15.4994 7.77511 15.5596 7.87955 15.6573ZM12.1528 0.657542L12.1532 0.657881L15.3547 3.65431C15.453 3.75081 15.5011 3.87233 15.5 3.99143C15.4989 4.11162 15.4476 4.23378 15.3454 4.3294C15.2422 4.42603 15.096 4.48602 14.9368 4.48732C14.779 4.4886 14.6325 4.43197 14.5273 4.33816L13.1495 3.04864L12.3079 2.2609V3.41369V13.9992C12.3079 14.1208 12.2566 14.2446 12.1533 14.3413C12.0488 14.439 11.9005 14.4992 11.7395 14.4992C11.5784 14.4992 11.4301 14.439 11.3256 14.3413C11.2223 14.2446 11.171 14.1208 11.171 13.9992V3.41369V2.26212L10.3297 3.04838L8.94956 4.33805C8.84435 4.43192 8.69786 4.4886 8.53998 4.48732C8.38082 4.48602 8.23462 4.42603 8.13138 4.3294C8.02921 4.23378 7.97792 4.11162 7.9768 3.99143C7.9757 3.87233 8.02381 3.7508 8.12205 3.6543L11.3236 0.657881L11.324 0.657541C11.3751 0.609621 11.4377 0.570082 11.509 0.542803L11.5107 0.542155C11.6559 0.485948 11.8208 0.485948 11.9661 0.542158L11.9678 0.5428C12.0391 0.570082 12.1017 0.609622 12.1528 0.657542Z"
        fill="white" stroke="white" />
</svg>
