<svg fill="none" height="18" viewBox="0 0 19 18" width="19" xmlns="http://www.w3.org/2000/svg">
    <path
        d="M9.45833 17.9167C4.51667 17.9167 0.5 13.9 0.5 8.95833C0.5 4.01667 4.51667 0 9.45833 0C14.4 0 18.4167 4.01667 18.4167 8.95833C18.4167 13.9 14.4 17.9167 9.45833 17.9167ZM9.45833 1.25C5.20833 1.25 1.75 4.70833 1.75 8.95833C1.75 13.2083 5.20833 16.6667 9.45833 16.6667C13.7083 16.6667 17.1667 13.2083 17.1667 8.95833C17.1667 4.70833 13.7083 1.25 9.45833 1.25Z"
        fill="#DD5959" />
    <path
        d="M9.45825 10.4167C9.11659 10.4167 8.83325 10.1333 8.83325 9.79167V5.625C8.83325 5.28333 9.11659 5 9.45825 5C9.79992 5 10.0833 5.28333 10.0833 5.625V9.79167C10.0833 10.1333 9.79992 10.4167 9.45825 10.4167Z"
        fill="#DD5959" />
    <path
        d="M9.45833 13.1249C9.35 13.1249 9.24167 13.0999 9.14167 13.0582C9.04167 13.0166 8.95 12.9582 8.86667 12.8832C8.79167 12.7999 8.73333 12.7166 8.69167 12.6082C8.65 12.5082 8.625 12.3999 8.625 12.2916C8.625 12.1832 8.65 12.0749 8.69167 11.9749C8.73333 11.8749 8.79167 11.7832 8.86667 11.6999C8.95 11.6249 9.04167 11.5666 9.14167 11.5249C9.34167 11.4416 9.575 11.4416 9.775 11.5249C9.875 11.5666 9.96667 11.6249 10.05 11.6999C10.125 11.7832 10.1833 11.8749 10.225 11.9749C10.2667 12.0749 10.2917 12.1832 10.2917 12.2916C10.2917 12.3999 10.2667 12.5082 10.225 12.6082C10.1833 12.7166 10.125 12.7999 10.05 12.8832C9.96667 12.9582 9.875 13.0166 9.775 13.0582C9.675 13.0999 9.56667 13.1249 9.45833 13.1249Z"
        fill="#DD5959" />
</svg>
