<svg fill="none" height="164" viewBox="0 0 200 164" width="200" xmlns="http://www.w3.org/2000/svg">
    <path
        d="M132.255 95.4957C132.255 113.282 117.786 127.751 100 127.751C82.2137 127.751 67.7503 113.282 67.7503 95.4957C67.7503 77.7094 82.2137 63.2405 100 63.2405C117.786 63.2405 132.255 77.7149 132.255 95.4957ZM200 49.6948V141.308C200 153.521 190.098 163.423 177.885 163.423H22.1153C9.90214 163.423 0 153.521 0 141.308V49.6948C0 37.4816 9.90214 27.5795 22.1153 27.5795H49.3172V19.9276C49.3172 9.24034 57.9753 0.57666 68.6681 0.57666H131.332C142.025 0.57666 150.683 9.24034 150.683 19.9276V27.574H177.885C190.098 27.5795 200 37.4816 200 49.6948ZM148.842 95.4957C148.842 68.5647 126.931 46.654 100 46.654C73.0746 46.654 51.1638 68.5647 51.1638 95.4957C51.1638 122.427 73.0746 144.337 100 144.337C126.931 144.337 148.842 122.427 148.842 95.4957Z"
        fill="black" />
</svg>
