<svg fill="none" height="37" viewBox="0 0 37 37" width="37" xmlns="http://www.w3.org/2000/svg">
    <g clip-path="url(#clip0_628_3613)">
        <path
            d="M36.0873 14.0863C36.0017 13.8371 35.6983 13.6433 35.445 13.6433C34.3481 13.6433 33.2513 13.6433 32.1544 13.6433C31.9012 13.6433 31.5977 13.8371 31.512 14.0863C31.4283 14.3302 31.3657 14.5479 31.324 14.7526L29.126 8.67156C28.7635 7.66882 27.8033 6.99512 26.7372 6.99512H9.92592C8.85967 6.99512 7.89972 7.66882 7.537 8.67174L5.33888 14.7533C5.29718 14.5484 5.23458 14.3305 5.15072 14.0863C5.06513 13.8371 4.76163 13.6433 4.50841 13.6433C3.41159 13.6433 2.31476 13.6433 1.21785 13.6433C0.964627 13.6433 0.66113 13.8371 0.575537 14.0863C0.242293 15.0566 0.242475 15.612 0.575629 16.5824C0.661221 16.8316 0.964719 17.0254 1.21794 17.0254C2.31485 17.0254 3.41168 17.0254 4.5085 17.0254C4.51161 17.0254 4.51489 17.0246 4.51808 17.0245L4.46844 17.162C3.79748 17.3849 3.31304 18.0166 3.31304 18.7624V23.8546V24.2743V29.9092C3.31304 30.3571 3.67603 30.7201 4.12398 30.7201H8.20531C8.65317 30.7201 9.01625 30.3571 9.01625 29.9092V25.9615H27.6468V29.9092C27.6468 30.3571 28.0098 30.7201 28.4577 30.7201H32.539C32.987 30.7201 33.35 30.3571 33.35 29.9092V24.2743V23.8546V18.7624C33.35 18.0167 32.8657 17.3852 32.195 17.1621L32.1453 17.0245C32.1483 17.0246 32.1515 17.0253 32.1545 17.0253C33.2514 17.0253 34.3482 17.0253 35.4451 17.0253C35.6984 17.0253 36.0018 16.8315 36.0874 16.5823C36.4205 15.612 36.4204 15.0566 36.0873 14.0863ZM10.2364 9.97936H26.4244L28.9892 17.0751H7.67168L10.2364 9.97936ZM10.688 22.0739H7.27356C6.54101 22.0739 5.94724 21.4801 5.94724 20.7476C5.94724 20.0151 6.54091 19.4213 7.27356 19.4213H10.688C11.4204 19.4213 12.0143 20.015 12.0143 20.7476C12.0144 21.4801 11.4204 22.0739 10.688 22.0739ZM29.3892 22.0739H25.9748C25.2423 22.0739 24.6485 21.4801 24.6485 20.7476C24.6485 20.0151 25.2423 19.4213 25.9748 19.4213H29.3892C30.1217 19.4213 30.7155 20.015 30.7155 20.7476C30.7155 21.4801 30.1217 22.0739 29.3892 22.0739Z"
            fill="#808080" />
    </g>
    <defs>
        <clipPath id="clip0_628_3613">
            <rect fill="white" height="36.0116" transform="translate(0.325562 0.852051)"
                width="36.0116" />
        </clipPath>
    </defs>
</svg>
