<svg fill="none" height="24" viewBox="0 0 24 24" width="24" xmlns="http://www.w3.org/2000/svg">
    <path
        d="M10.281 23.1522L2.71266 17.2439C2.35396 16.964 2.29104 16.4462 2.57209 16.0878L14.9432 0.315979C15.2239 -0.0418476 15.7415 -0.105204 16.0996 0.174394L23.668 6.08269C24.0267 6.36268 24.0897 6.88049 23.8086 7.23884L11.4375 23.0107C11.1567 23.3685 10.6392 23.4318 10.281 23.1522Z"
        fill="#57AD7B" />
    <path
        d="M5.50265 23.6354L0.155766 15.668C-0.0977549 15.2902 0.00355698 14.7783 0.381955 14.5249L17.0484 3.36668C17.4263 3.11364 17.9377 3.21433 18.191 3.59166L23.5378 11.5591C23.7914 11.9369 23.6901 12.4488 23.3117 12.7022L6.64523 23.8604C6.26727 24.1135 5.75588 24.0128 5.50265 23.6354Z"
        fill="#81CDA1" />
    <path
        d="M23.5378 11.5591L18.1909 3.59166C17.9377 3.21433 17.4263 3.11364 17.0483 3.36668L16.3998 3.8009L21.6062 11.5591C21.8597 11.9369 21.7584 12.4488 21.38 12.7022L5.36212 23.4262L5.50255 23.6354C5.75578 24.0128 6.26717 24.1135 6.64513 23.8604L23.3116 12.7022C23.69 12.4488 23.7913 11.9369 23.5378 11.5591Z"
        fill="#60BF88" />
    <path
        d="M16.2322 13.8758C16.3728 11.4556 14.5227 9.37951 12.0997 9.2387C9.67681 9.09789 7.5986 10.9457 7.45795 13.3659C7.3173 15.7861 9.16746 17.8622 11.5904 18.003C14.0133 18.1438 16.0915 16.296 16.2322 13.8758Z"
        fill="#29795D" />
    <path
        d="M2.66264 12.998C3.7608 14.6344 3.3231 16.8501 1.68502 17.9468L0.155004 15.667C-0.098179 15.2897 0.00337436 14.7784 0.381869 14.5251L2.66264 12.998Z"
        fill="#29795D" />
    <path
        d="M3.97675 21.3618C5.61831 20.2628 7.83746 20.6956 8.9333 22.3285L6.6462 23.8598C6.26776 24.1131 5.75569 24.0127 5.50251 23.6354L3.97675 21.3618Z"
        fill="#29795D" />
    <path
        d="M21.0319 14.2306C19.9337 12.5942 20.3714 10.3786 22.0095 9.28186L23.5395 11.5617C23.7927 11.939 23.6912 12.4502 23.3127 12.7036L21.0319 14.2306Z"
        fill="#29795D" />
    <path
        d="M19.7178 5.8669C18.0763 6.96598 15.8571 6.53316 14.7613 4.90019L17.0484 3.36897C17.4268 3.1156 17.9389 3.21604 18.1921 3.59328L19.7178 5.8669Z"
        fill="#29795D" />
    <path
        d="M17.3625 10.2831C17.2457 10.2831 17.131 10.2267 17.0612 10.1224C16.95 9.95618 16.9945 9.73124 17.1607 9.61994L18.8657 8.47846C19.0318 8.36725 19.2569 8.41173 19.3681 8.57794C19.4794 8.74415 19.4349 8.96909 19.2686 9.08039L17.5637 10.2219C17.5018 10.2633 17.4317 10.2831 17.3625 10.2831Z"
        fill="#29795D" />
    <path
        d="M4.62672 18.8099C4.5099 18.8099 4.39531 18.7535 4.32544 18.6491C4.21418 18.4829 4.2587 18.258 4.42491 18.1467L6.12983 17.0052C6.296 16.8939 6.52093 16.9385 6.63229 17.1047C6.74355 17.2709 6.69902 17.4959 6.53281 17.6071L4.82789 18.7486C4.76599 18.79 4.69596 18.8099 4.62672 18.8099Z"
        fill="#29795D" />
    <path
        d="M13.5394 15.5386C14.0616 15.0004 14.0786 14.2558 13.841 13.7291C13.5307 13.0415 12.8468 12.7211 12.0984 12.9131C12.0084 12.9362 11.9161 12.9592 11.8232 12.9811L11.0016 11.7567C11.208 11.6897 11.3688 11.7072 11.3847 11.7091C11.5814 11.7375 11.7639 11.6024 11.7942 11.406C11.8248 11.2083 11.6893 11.0233 11.4916 10.9927C11.4665 10.9889 11.0558 10.9306 10.5886 11.1415L10.4293 10.904C10.3178 10.738 10.0929 10.6936 9.92673 10.8051C9.76066 10.9166 9.71638 11.1416 9.82783 11.3077L10.0016 11.5667C9.97323 11.5971 9.94508 11.6286 9.91736 11.6622C9.59816 12.0499 9.52814 12.5908 9.73478 13.0738C9.92364 13.5154 10.304 13.8091 10.7275 13.8403C10.9424 13.856 11.1845 13.8404 11.4924 13.7881L12.5497 15.3637C12.3402 15.4775 12.1716 15.5129 11.8552 15.5167C11.6552 15.5191 11.495 15.6832 11.4974 15.8832C11.4998 16.0818 11.6615 16.2411 11.8595 16.2411H11.864C12.3575 16.2351 12.6425 16.1471 12.9545 15.9669L13.133 16.2329C13.2029 16.3371 13.3174 16.3933 13.4341 16.3933C13.5035 16.3933 13.5736 16.3734 13.6356 16.3319C13.8016 16.2204 13.8459 15.9954 13.7345 15.8293L13.5394 15.5386ZM10.7808 13.1179C10.6307 13.1069 10.4816 12.9778 10.4008 12.7889C10.3315 12.627 10.3074 12.3957 10.4248 12.1971L11.0411 13.1155C10.9482 13.1223 10.8605 13.1238 10.7808 13.1179ZM12.2784 13.6148C12.8745 13.462 13.1197 13.8917 13.1808 14.0271C13.2954 14.281 13.304 14.6256 13.1171 14.9092L12.2528 13.6213C12.2614 13.619 12.2696 13.617 12.2784 13.6148Z"
        fill="#81CDA1" />
</svg>
