<svg fill="none" height="20" viewBox="0 0 20 20" width="20" xmlns="http://www.w3.org/2000/svg">
    <path clip-rule="evenodd" d="M12.5763 18.3637C11.7625 18.615 10.8969 18.75 10 18.75C5.17062 18.75 1.25 14.8294 1.25 10C1.25 5.17062 5.17062 1.25 10 1.25C14.8294 1.25 18.75 5.17062 18.75 10C18.75 10.8969 18.615 11.7625 18.3637 12.5763L12.5763 18.3637Z"
        fill="#FF637B"
        fill-rule="evenodd" />
    <path clip-rule="evenodd" d="M10.7569 16.8337C10.5081 16.8612 10.2556 16.875 10 16.875C6.20563 16.875 3.125 13.7944 3.125 10C3.125 6.20563 6.20563 3.125 10 3.125C13.7944 3.125 16.875 6.20563 16.875 10C16.875 10.2556 16.8612 10.5081 16.8337 10.7569L10.7569 16.8337Z"
        fill="#EDF5FF"
        fill-rule="evenodd" />
    <path clip-rule="evenodd" d="M9.40234 6.02429V10.0024C9.40234 10.1679 9.46838 10.327 9.58533 10.4448L10.8679 11.7265C11.1121 11.9708 11.5084 11.9708 11.7518 11.7265C11.9961 11.4831 11.9961 11.0868 11.7518 10.8426L10.6531 9.74383V6.02429C10.6531 5.67899 10.373 5.39893 10.0277 5.39893C9.6824 5.39893 9.40234 5.67899 9.40234 6.02429Z"
        fill="#303E43"
        fill-rule="evenodd" />
    <path
        d="M14.375 18.75C16.7912 18.75 18.75 16.7912 18.75 14.375C18.75 11.9588 16.7912 10 14.375 10C11.9588 10 10 11.9588 10 14.375C10 16.7912 11.9588 18.75 14.375 18.75Z"
        fill="#FCC938" />
    <g clip-path="url(#clip0_801_6809)">
        <path
            d="M15.5256 15.9754C15.3599 16.0701 15.1468 16.1175 14.9101 16.1175C14.4129 16.1175 14.0578 15.8808 13.8211 15.431H15.3362V14.8628H13.6553C13.6316 14.7681 13.6316 14.6735 13.6316 14.5551V14.3184H15.3362V13.75H13.7737C13.892 13.5133 14.0341 13.3239 14.2472 13.1818C14.4366 13.0398 14.6734 12.9688 14.9338 12.9688C15.1706 12.9688 15.4073 12.9924 15.5729 13.0872C15.7387 13.1818 15.928 13.3239 16.1175 13.537L16.5909 12.9451C16.1649 12.4479 15.6203 12.1875 14.9101 12.1875C14.4366 12.1875 14.0341 12.3296 13.6553 12.6373C13.2765 12.9214 13.0161 13.3002 12.874 13.7737H12.1875V14.2946H12.7557V14.5313C12.7557 14.626 12.7557 14.7443 12.7794 14.839H12.1875V15.4073H12.9214C13.0635 15.8571 13.3239 16.2122 13.679 16.4726C14.0341 16.7331 14.4602 16.8751 14.9101 16.8751C15.5966 16.8751 16.1412 16.6383 16.5437 16.1175L16.0701 15.5494C15.8808 15.7387 15.6913 15.8808 15.5256 15.9754Z"
            fill="#4FABF7" />
    </g>
    <defs>
        <clipPath id="clip0_801_6809">
            <rect fill="white" height="4.68758" transform="translate(12.1875 12.1875)"
                width="4.40352" />
        </clipPath>
    </defs>
</svg>
