<svg fill="none" height="26" viewBox="0 0 26 26" width="26" xmlns="http://www.w3.org/2000/svg">
    <path
        d="M17.8813 22.187C17.8813 22.2462 17.859 22.303 17.8193 22.3449C17.7795 22.3867 17.7257 22.4102 17.6695 22.4102H2.87012C2.81394 22.4102 2.76005 22.3867 2.72032 22.3449C2.68059 22.303 2.65827 22.2462 2.65827 22.187V6.5949C2.65827 6.53571 2.68059 6.47893 2.72032 6.43707C2.76005 6.39522 2.81394 6.3717 2.87012 6.3717H11.9735L14.5107 3.69861H2.87012C2.14124 3.69932 1.44241 4.00469 0.927008 4.5477C0.41161 5.0907 0.121766 5.82698 0.121094 6.5949V22.187C0.121766 22.955 0.41161 23.6912 0.927008 24.2342C1.44241 24.7772 2.14124 25.0826 2.87012 25.0833H17.6695C18.3984 25.0826 19.0972 24.7772 19.6126 24.2342C20.128 23.6912 20.4178 22.955 20.4185 22.187V12.596L17.8813 15.2691V22.187Z"
        fill="#6B7280" />
    <path
        d="M24.0517 1.20729C23.3381 0.455601 22.3702 0.0333252 21.3611 0.0333252C20.3519 0.0333252 19.3841 0.455601 18.6704 1.20729L8.80204 11.6029C8.62516 11.7896 8.50466 12.0272 8.45572 12.2859L7.55882 17.0119C7.5212 17.2061 7.52504 17.4067 7.57008 17.5992C7.61512 17.7916 7.70022 17.9711 7.81922 18.1247C7.93822 18.2782 8.08815 18.4019 8.25813 18.4868C8.42812 18.5718 8.61391 18.6158 8.80204 18.6158C8.88717 18.6155 8.9721 18.607 9.05576 18.5904L13.5402 17.6455C13.7859 17.5935 14.0115 17.4661 14.1885 17.2792L24.0555 6.8836C24.4095 6.5109 24.6903 6.0683 24.8817 5.58115C25.0731 5.094 25.1714 4.57186 25.1711 4.04461C25.1707 3.51737 25.0717 2.99537 24.8796 2.5085C24.6875 2.02164 24.4062 1.57946 24.0517 1.20729ZM22.258 3.09717C22.3759 3.2213 22.4695 3.3687 22.5333 3.53095C22.5972 3.69321 22.63 3.86713 22.63 4.04277C22.63 4.21841 22.5972 4.39233 22.5333 4.55459C22.4695 4.71684 22.3759 4.86425 22.258 4.98838L21.578 5.70343L19.7842 3.81355L20.4642 3.09717C20.7021 2.8466 21.0247 2.70584 21.3611 2.70584C21.6974 2.70584 22.0201 2.8466 22.258 3.09717ZM12.6624 15.098L10.4195 15.5711L10.8686 13.2068L17.9904 5.70343L19.7842 7.5933L12.6624 15.098Z"
        fill="#6B7280" />
</svg>
