<svg fill="none" height="34" viewBox="0 0 34 34" width="34" xmlns="http://www.w3.org/2000/svg">
    <rect fill="#F0F7F5" height="34" rx="17" width="34" />
    <g clip-path="url(#clip0_16_3933)">
        <path
            d="M24.2994 26.1666C23.5127 26.2214 22.7396 25.9403 22.1718 25.393C21.2469 24.4048 21.3569 22.7447 21.4733 20.9875C21.5109 20.4191 21.5494 19.8435 21.5494 19.2907C21.5494 14.2491 19.8243 14.2491 19.2578 14.2491C19.0047 14.2491 18.7994 14.0438 18.7994 13.7907C18.7994 13.5376 19.0047 13.3324 19.2578 13.3324C22.4661 13.3324 22.4661 17.8167 22.4661 19.2907C22.4661 19.8636 22.4276 20.4586 22.3882 21.048C22.2856 22.6008 22.1884 24.0684 22.8411 24.766C23.2375 25.1252 23.7669 25.3009 24.2995 25.25C24.6736 25.2774 25.0398 25.1326 25.2941 24.8567C26.0998 23.9208 25.7277 21.4302 25.4554 19.6116C25.3285 18.8995 25.2486 18.1799 25.2162 17.4574V14.7074C25.2162 14.5632 25.2841 14.4273 25.3995 14.3408C26.2951 13.6753 26.2245 13.1491 26.1613 12.7284C26.145 12.6252 26.1355 12.5211 26.1329 12.4167C25.0495 10.4874 23.1645 9.13948 20.9885 8.73811C20.7417 8.68118 20.5878 8.43492 20.6448 8.18811C20.7018 7.9413 20.948 7.78743 21.1948 7.84436C25.2336 8.77386 27.0495 11.7549 27.0495 12.4167C27.0524 12.4782 27.0591 12.5394 27.0697 12.6001C27.2556 13.4949 26.8863 14.4139 26.1328 14.9312V17.4584C26.1676 18.1347 26.2441 18.8082 26.362 19.4751C26.6764 21.5834 27.0687 24.2005 25.988 25.4536C25.5622 25.9348 24.9413 26.197 24.2994 26.1666Z"
            fill="#455A64" />
        <path
            d="M25.6745 15.1665C25.5528 15.1667 25.4361 15.1186 25.35 15.0327C22.7906 12.4733 23.1014 11.1332 24.4333 9.80127C24.6154 9.6254 24.9056 9.63047 25.0814 9.81253C25.253 9.99016 25.253 10.2717 25.0814 10.4494C24.305 11.2258 23.5726 11.9582 25.9981 14.3846C26.1773 14.5634 26.1776 14.8536 25.9989 15.0328C25.9127 15.1192 25.7956 15.1677 25.6736 15.1675L25.6745 15.1665Z"
            fill="#455A64" />
        <path
            d="M17.4244 6H10.0911C8.82545 6 7.79944 7.02601 7.79944 8.29165V25.7083C7.79944 25.9614 8.00466 26.1667 8.25779 26.1667H19.2578C19.5109 26.1667 19.7161 25.9614 19.7161 25.7083V8.29165C19.7161 7.02601 18.6901 6 17.4244 6Z"
            fill="#F44336" />
        <path
            d="M10.0912 7.83325H17.4245C17.6776 7.83325 17.8829 8.03847 17.8829 8.2916V13.7916C17.8829 14.0447 17.6776 14.2499 17.4245 14.2499H10.0912C9.83803 14.2499 9.63281 14.0447 9.63281 13.7916V8.2916C9.63281 8.03843 9.83803 7.83325 10.0912 7.83325Z"
            fill="#CFD8DC" />
        <path
            d="M19.2578 25.25H8.25781C7.49843 25.25 6.88281 25.8656 6.88281 26.625V27.5417C6.88281 27.7948 7.08803 28 7.34116 28H20.1745C20.4276 28 20.6329 27.7948 20.6329 27.5417V26.625C20.6328 25.8656 20.0172 25.25 19.2578 25.25Z"
            fill="#455A64" />
    </g>
    <defs>
        <clipPath id="clip0_16_3933">
            <rect fill="white" height="22" transform="translate(6 6)" width="22" />
        </clipPath>
    </defs>
</svg>
