<svg fill="none" height="200" viewBox="0 0 200 200" width="200" xmlns="http://www.w3.org/2000/svg">
    <g clip-path="url(#clip0_570_6823)">
        <path
            d="M52.0833 162.5C38.7416 162.5 26.875 153.958 22.5666 141.241L22.275 140.283C21.2583 136.916 20.8333 134.083 20.8333 131.25V74.4331L0.616644 141.916C-1.98336 151.841 3.94164 162.133 13.8833 164.875L142.742 199.383C144.35 199.8 145.958 200 147.542 200C155.842 200 163.425 194.491 165.55 186.375L173.058 162.5H52.0833Z"
            fill="black" />
        <path
            d="M75.0002 74.9998C84.1918 74.9998 91.6668 67.5248 91.6668 58.3332C91.6668 49.1415 84.1918 41.6665 75.0002 41.6665C65.8085 41.6665 58.3335 49.1415 58.3335 58.3332C58.3335 67.5248 65.8085 74.9998 75.0002 74.9998Z"
            fill="black" />
        <path
            d="M179.167 16.6665H54.1668C42.6835 16.6665 33.3335 26.0165 33.3335 37.4998V129.167C33.3335 140.65 42.6835 150 54.1668 150H179.167C190.65 150 200 140.65 200 129.167V37.4998C200 26.0165 190.65 16.6665 179.167 16.6665ZM54.1668 33.3332H179.167C181.467 33.3332 183.334 35.1998 183.334 37.4998V96.6582L157.008 65.9415C154.217 62.6665 150.175 60.9165 145.834 60.8165C141.517 60.8415 137.467 62.7582 134.7 66.0748L103.75 103.225L93.6668 93.1665C87.9668 87.4665 78.6918 87.4665 73.0002 93.1665L50.0002 116.158V37.4998C50.0002 35.1998 51.8668 33.3332 54.1668 33.3332Z"
            fill="black" />
    </g>
    <defs>
        <clipPath id="clip0_570_6823">
            <rect fill="white" height="200" width="200" />
        </clipPath>
    </defs>
</svg>
