<svg fill="none" height="37" viewBox="0 0 37 37" width="37" xmlns="http://www.w3.org/2000/svg">
    <path
        d="M31.6769 2.68555H28.4994V5.86304C28.4994 6.49854 27.9698 6.92221 27.4402 6.92221C26.9107 6.92221 26.3811 6.49854 26.3811 5.86304V2.68555H9.43442V5.86304C9.43442 6.49854 8.90484 6.92221 8.37526 6.92221C7.84567 6.92221 7.31609 6.49854 7.31609 5.86304V2.68555H4.1386C2.54985 2.68555 1.38477 4.06246 1.38477 5.86304V9.67604H35.2781V5.86304C35.2781 4.06246 33.3716 2.68555 31.6769 2.68555ZM1.38477 11.9003V31.283C1.38477 33.1895 2.54985 34.4605 4.24451 34.4605H31.7828C33.4775 34.4605 35.384 33.0836 35.384 31.283V11.9003H1.38477ZM10.8113 29.6943H8.26934C7.84567 29.6943 7.42201 29.3765 7.42201 28.8469V26.199C7.42201 25.7754 7.73976 25.3517 8.26934 25.3517H10.9173C11.3409 25.3517 11.7646 25.6694 11.7646 26.199V28.8469C11.6587 29.3765 11.3409 29.6943 10.8113 29.6943ZM10.8113 20.1618H8.26934C7.84567 20.1618 7.42201 19.844 7.42201 19.3144V16.6665C7.42201 16.2429 7.73976 15.8192 8.26934 15.8192H10.9173C11.3409 15.8192 11.7646 16.1369 11.7646 16.6665V19.3144C11.6587 19.844 11.3409 20.1618 10.8113 20.1618ZM19.2847 29.6943H16.6367C16.2131 29.6943 15.7894 29.3765 15.7894 28.8469V26.199C15.7894 25.7754 16.1072 25.3517 16.6367 25.3517H19.2847C19.7083 25.3517 20.132 25.6694 20.132 26.199V28.8469C20.132 29.3765 19.8142 29.6943 19.2847 29.6943ZM19.2847 20.1618H16.6367C16.2131 20.1618 15.7894 19.844 15.7894 19.3144V16.6665C15.7894 16.2429 16.1072 15.8192 16.6367 15.8192H19.2847C19.7083 15.8192 20.132 16.1369 20.132 16.6665V19.3144C20.132 19.844 19.8142 20.1618 19.2847 20.1618ZM27.758 29.6943H25.1101C24.6864 29.6943 24.2627 29.3765 24.2627 28.8469V26.199C24.2627 25.7754 24.5805 25.3517 25.1101 25.3517H27.758C28.1817 25.3517 28.6053 25.6694 28.6053 26.199V28.8469C28.6053 29.3765 28.2876 29.6943 27.758 29.6943ZM27.758 20.1618H25.1101C24.6864 20.1618 24.2627 19.844 24.2627 19.3144V16.6665C24.2627 16.2429 24.5805 15.8192 25.1101 15.8192H27.758C28.1817 15.8192 28.6053 16.1369 28.6053 16.6665V19.3144C28.6053 19.844 28.2876 20.1618 27.758 20.1618Z"
        fill="#808080" />
</svg>
