<svg fill="none" height="33" viewBox="0 0 33 33" width="33" xmlns="http://www.w3.org/2000/svg">
    <g clip-path="url(#clip0_628_3259)">
        <g clip-path="url(#clip1_628_3259)">
            <path
                d="M31.0657 6.16016H1.80627C-0.0555071 6.16016 -1.56982 7.67447 -1.56982 9.53625V23.0406C-1.56982 24.9024 -0.0555071 26.4167 1.80627 26.4167H31.0657C32.9275 26.4167 34.4418 24.9024 34.4418 23.0406V9.53625C34.4418 7.67447 32.9275 6.16016 31.0657 6.16016ZM2.46601 11.6815C2.21351 11.1132 2.46953 10.4485 3.03713 10.196C3.60474 9.94349 4.27011 10.1995 4.52261 10.7671L5.74504 13.5179L6.96746 10.7671C7.21997 10.1995 7.88534 9.94349 8.45294 10.196C9.02055 10.4485 9.27657 11.1132 9.02407 11.6815L6.97661 16.2884L9.02407 20.8954C9.35661 21.6438 8.80342 22.4779 7.99647 22.4779C7.56531 22.4779 7.15385 22.2289 6.96746 21.8097L5.74504 19.0596L4.52261 21.8097C4.33622 22.2289 3.92476 22.4779 3.49361 22.4779C2.68714 22.4779 2.13332 21.6441 2.46601 20.8954L4.51347 16.2884L2.46601 11.6815ZM16.436 17.4138H15.8733C15.2515 17.4138 14.7479 16.9102 14.7479 16.2884C14.7479 15.6667 15.2515 15.1631 15.8733 15.1631H16.436C16.7462 15.1631 16.9987 14.9106 16.9987 14.6004V12.9123C16.9987 12.6022 16.7462 12.3497 16.436 12.3497H14.1853C13.5635 12.3497 13.0599 11.8461 13.0599 11.2243C13.0599 10.6025 13.5635 10.0989 14.1853 10.0989H16.436C17.9876 10.0989 19.2494 11.3607 19.2494 12.9123C19.2494 14.5533 19.3839 15.3611 18.6853 16.2884C19.0398 16.759 19.2494 17.3435 19.2494 17.9765V19.6645C19.2494 21.2161 17.9876 22.4779 16.436 22.4779H14.1853C13.5635 22.4779 13.0599 21.9743 13.0599 21.3526C13.0599 20.7308 13.5635 20.2272 14.1853 20.2272H16.436C16.7462 20.2272 16.9987 19.9747 16.9987 19.6645V17.9765C16.9987 17.6663 16.7462 17.4138 16.436 17.4138ZM11.9345 17.4138H10.2465C9.62473 17.4138 9.12113 16.9102 9.12113 16.2884C9.12113 15.6667 9.62473 15.1631 10.2465 15.1631H11.9345C12.5563 15.1631 13.0599 15.6667 13.0599 16.2884C13.0599 16.9102 12.5563 17.4138 11.9345 17.4138ZM26.0016 20.2272C26.6233 20.2272 27.1269 20.7308 27.1269 21.3526C27.1269 21.9743 26.6233 22.4779 26.0016 22.4779H21.5001C20.6037 22.4779 20.0647 21.4754 20.564 20.728L24.1293 15.3804C24.6181 14.6475 24.8762 13.7936 24.8762 12.9123C24.8762 12.6022 24.6237 12.3497 24.3135 12.3497H23.1882C22.878 12.3497 22.6255 12.6022 22.6255 12.9123C22.6255 13.5341 22.1219 14.0377 21.5001 14.0377C20.8784 14.0377 20.3748 13.5341 20.3748 12.9123C20.3748 11.3607 21.6366 10.0989 23.1882 10.0989H24.3135C25.8651 10.0989 27.1269 11.3607 27.1269 12.9123C27.1269 14.2396 26.738 15.5246 26.0016 16.6288L23.6031 20.2272H26.0016ZM30.503 21.3526C30.503 21.9743 29.9994 22.4779 29.3777 22.4779C28.7559 22.4779 28.2523 21.9743 28.2523 21.3526V11.2243C28.2523 10.6025 28.7559 10.0989 29.3777 10.0989C29.9994 10.0989 30.503 10.6025 30.503 11.2243V21.3526Z"
                fill="#808080" />
        </g>
    </g>
    <defs>
        <clipPath id="clip0_628_3259">
            <rect fill="white" height="32.2209" transform="translate(0.325562 0.177734)"
                width="32.2209" />
        </clipPath>
        <clipPath id="clip1_628_3259">
            <rect fill="white" height="36.0116" transform="translate(-1.56982 -1.71777)"
                width="36.0116" />
        </clipPath>
    </defs>
</svg>
