<svg fill="none" height="34" viewBox="0 0 34 34" width="34" xmlns="http://www.w3.org/2000/svg">
    <rect fill="#F0F7F5" height="34" rx="17" width="34" />
    <g clip-path="url(#clip0_16_3158)">
        <g clip-path="url(#clip1_16_3158)">
            <path
                d="M14.1875 12.95C13.9485 12.95 13.6953 12.95 13.4421 12.978H13.4C8.78754 13.4139 5 17.7922 5 22.6718C5 28.3391 10.2641 28.9999 14.1875 28.9999C18.0829 28.9999 22.625 28.4094 23.2578 23.7546C23.9186 18.2983 19.5875 12.95 14.1875 12.95Z"
                fill="#FF637B" />
            <path
                d="M23.2578 23.7546C22.625 28.4094 18.0829 28.9999 14.1875 28.9999V12.95C19.5875 12.95 23.9186 18.2983 23.2578 23.7546Z"
                fill="#E63950" />
            <path
                d="M19.0671 7.33441L17.6608 11.6H10.7142L9.30794 7.33441C9.22335 7.12347 9.26565 6.88434 9.39217 6.7016C9.5328 6.51886 9.74373 6.40625 9.96877 6.40625H12.2047C12.4859 5.59052 13.2735 5 14.1875 5C15.1016 5 15.875 5.59052 16.1704 6.40625H18.4063C18.6313 6.40625 18.8422 6.51886 18.9829 6.7016C19.1094 6.88434 19.1517 7.12347 19.0671 7.33441Z"
                fill="#FF637B" />
            <path
                d="M19.0671 7.33441L17.6608 11.6H14.1875V5C15.1016 5 15.875 5.59052 16.1703 6.40625H18.4063C18.6313 6.40625 18.8422 6.51886 18.9828 6.7016C19.1094 6.88434 19.1517 7.12347 19.0671 7.33441Z"
                fill="#E63950" />
            <path
                d="M16.2828 22.8828C16.2828 23.7969 15.7064 24.5562 14.8906 24.8516V25.4844C14.8906 25.8782 14.5814 26.1875 14.1875 26.1875C13.7936 26.1875 13.4844 25.8782 13.4844 25.4844V24.8657C12.6686 24.5703 12.064 23.7969 12.064 22.8828C12.064 22.4891 12.3874 22.1797 12.7672 22.1797C13.161 22.1797 13.4703 22.4891 13.4703 22.8828C13.4703 23.2626 13.7936 23.5859 14.1734 23.5859H14.1875C14.5814 23.5718 14.8765 23.2626 14.8765 22.8828C14.8765 22.4891 14.5814 22.1938 14.1875 22.1797H14.1734C13.0204 22.1797 12.064 21.2233 12.064 20.0703C12.064 19.1422 12.6688 18.3687 13.4844 18.0875V17.0469C13.4844 16.653 13.7936 16.3438 14.1875 16.3438C14.5814 16.3438 14.8906 16.653 14.8906 17.0469V18.0875C15.7064 18.3828 16.2828 19.1562 16.2828 20.0703C16.2828 20.4501 15.9735 20.7734 15.5797 20.7734C15.1999 20.7734 14.8765 20.4501 14.8765 20.0703C14.8765 19.6766 14.5814 19.3813 14.1875 19.3672H14.1734C13.7936 19.3672 13.4703 19.6766 13.4703 20.0703C13.4703 20.4501 13.7936 20.7734 14.1734 20.7734H14.1875C15.3548 20.7875 16.2828 21.7157 16.2828 22.8828Z"
                fill="#FFDA2D" />
            <path
                d="M29 19.1562C29 19.9297 28.3672 20.5625 27.5938 20.5625L24.0312 21.9688L20.5156 20.5625C19.7422 20.5625 19.1094 19.9297 19.1094 19.1562C19.1094 18.3828 19.7422 17.75 20.5156 17.75H27.5938C28.3672 17.75 29 18.3828 29 19.1562Z"
                fill="#FFDA2D" />
            <path
                d="M29 19.1562C29 19.9297 28.3672 20.5625 27.5938 20.5625L24.0312 21.9688V17.75H27.5938C28.3672 17.75 29 18.3828 29 19.1562Z"
                fill="#FDBF00" />
            <path
                d="M29 21.9688C29 22.7422 28.3672 23.375 27.5938 23.375L24.0312 24.7812L20.5156 23.375C19.7422 23.375 19.1094 22.7422 19.1094 21.9688C19.1094 21.1953 19.7422 20.5625 20.5156 20.5625H27.5938C28.3672 20.5625 29 21.1953 29 21.9688Z"
                fill="#FDBF00" />
            <path
                d="M29 21.9688C29 22.7422 28.3672 23.375 27.5938 23.375L24.0312 24.7812V20.5625H27.5938C28.3672 20.5625 29 21.1953 29 21.9688Z"
                fill="#FF9100" />
            <path
                d="M29 24.7812C29 25.5547 28.3672 26.1875 27.5938 26.1875L24.0312 27.5938L20.5156 26.1875C19.7422 26.1875 19.1094 25.5547 19.1094 24.7812C19.1094 24.0078 19.7422 23.375 20.5156 23.375H27.5938C28.3672 23.375 29 24.0078 29 24.7812Z"
                fill="#FFDA2D" />
            <path
                d="M29 24.7812C29 25.5547 28.3672 26.1875 27.5938 26.1875L24.0312 27.5938V23.375H27.5938C28.3672 23.375 29 24.0078 29 24.7812Z"
                fill="#FDBF00" />
            <path
                d="M29 27.5938C29 28.3672 28.3672 29 27.5938 29H20.5156C19.7422 29 19.1094 28.3672 19.1094 27.5938C19.1094 26.8203 19.7422 26.1875 20.5156 26.1875H27.5938C28.3672 26.1875 29 26.8203 29 27.5938Z"
                fill="#FDBF00" />
            <path
                d="M29 27.5938C29 28.3672 28.3672 29 27.5938 29H24.0312V26.1875H27.5938C28.3672 26.1875 29 26.8203 29 27.5938Z"
                fill="#FF9100" />
            <path
                d="M19.1094 12.0781C19.1094 12.8516 18.4766 13.4844 17.7031 13.4844H10.6719C9.89844 13.4844 9.26562 12.8516 9.26562 12.0781C9.26562 11.3047 9.89844 10.6719 10.6719 10.6719H17.7031C18.4766 10.6719 19.1094 11.3047 19.1094 12.0781Z"
                fill="#FFDA2D" />
            <path
                d="M16.2828 22.8828C16.2828 23.7969 15.7064 24.5562 14.8906 24.8516V25.4844C14.8906 25.8782 14.5814 26.1875 14.1875 26.1875V23.5859C14.5814 23.5718 14.8765 23.2626 14.8765 22.8828C14.8765 22.4891 14.5814 22.1938 14.1875 22.1797V20.7734C15.3548 20.7875 16.2828 21.7157 16.2828 22.8828Z"
                fill="#FDBF00" />
            <path
                d="M16.2828 20.0703C16.2828 20.4501 15.9735 20.7734 15.5797 20.7734C15.1999 20.7734 14.8765 20.4501 14.8765 20.0703C14.8765 19.6766 14.5814 19.3813 14.1875 19.3672V16.3438C14.5814 16.3438 14.8906 16.653 14.8906 17.0469V18.0875C15.7064 18.3828 16.2828 19.1562 16.2828 20.0703Z"
                fill="#FDBF00" />
            <path
                d="M19.1094 12.0781C19.1094 12.8516 18.4766 13.4844 17.7031 13.4844H14.1875V10.6719H17.7031C18.4766 10.6719 19.1094 11.3047 19.1094 12.0781Z"
                fill="#FDBF00" />
        </g>
    </g>
    <defs>
        <clipPath id="clip0_16_3158">
            <rect fill="white" height="24" transform="translate(5 5)" width="24" />
        </clipPath>
        <clipPath id="clip1_16_3158">
            <rect fill="white" height="24" transform="translate(5 5)" width="24" />
        </clipPath>
    </defs>
</svg>
