<svg fill="none" height="24" viewBox="0 0 24 24" width="24" xmlns="http://www.w3.org/2000/svg">
    <g clip-path="url(#clip0_628_505)">
        <path
            d="M15.5512 13.4337L13.5412 15.4506C12.7262 16.2687 11.2919 16.2862 10.4594 15.4506L8.44937 13.4337L1.22937 20.6762C1.49812 20.8006 1.79437 20.875 2.10937 20.875H21.8906C22.2056 20.875 22.5019 20.8012 22.7706 20.6762L15.5512 13.4337Z"
            fill="#666666" />
        <path
            d="M21.8906 4H2.10938C1.79437 4 1.49813 4.07438 1.22938 4.19875L8.94375 11.9387C8.94438 11.9394 8.945 11.9394 8.945 11.94C8.94562 11.94 8.94563 11.9406 8.94563 11.9412L11.4537 14.4581C11.7206 14.725 12.2781 14.725 12.5444 14.4581L15.0525 11.9419C15.0525 11.9419 15.0531 11.9406 15.0538 11.94C15.0538 11.94 15.055 11.9394 15.0556 11.9387L22.7706 4.19875C22.5019 4.07375 22.2056 4 21.8906 4ZM0.224375 5.18187C0.085 5.46312 0 5.775 0 6.10938V18.7656C0 19.1 0.085 19.4119 0.224375 19.6931L7.45625 12.4375L0.224375 5.18187ZM23.7756 5.18187L16.5438 12.4375L23.7756 19.6931C23.915 19.4119 24 19.1 24 18.7656V6.10938C24 5.775 23.915 5.46312 23.7756 5.18187Z"
            fill="#666666" />
    </g>
    <defs>
        <clipPath id="clip0_628_505">
            <rect fill="white" height="24" transform="translate(24) rotate(90)" width="24" />
        </clipPath>
    </defs>
</svg>
