<svg fill="none" height="20" viewBox="0 0 20 20" width="20" xmlns="http://www.w3.org/2000/svg">
    <g clip-path="url(#clip0_801_6784)">
        <path
            d="M5.15176 9.69678C4.98457 9.69678 4.84863 9.83272 4.84863 9.9999C4.84863 10.1671 4.98457 10.303 5.15176 10.303C5.31895 10.303 5.45488 10.1671 5.45488 9.9999C5.45488 9.83272 5.31895 9.69678 5.15176 9.69678Z"
            fill="#FFDA2D" />
        <path
            d="M5.15182 8.48486C4.31641 8.48486 3.63672 9.16455 3.63672 9.99997C3.63672 10.8354 4.31641 11.5151 5.15182 11.5151C5.98724 11.5151 6.66693 10.8354 6.66693 9.99997C6.66693 9.16455 5.98724 8.48486 5.15182 8.48486ZM5.15182 10.6062C4.81693 10.6062 4.54557 10.3349 4.54557 9.99997C4.54557 9.66507 4.81693 9.39372 5.15182 9.39372C5.48672 9.39372 5.75807 9.66507 5.75807 9.99997C5.75807 10.3349 5.48672 10.6062 5.15182 10.6062Z"
            fill="#FFDA2D" />
        <path
            d="M5.15166 9.39355C4.81676 9.39355 4.54541 9.66491 4.54541 9.9998C4.54541 10.3347 4.81676 10.6061 5.15166 10.6061C5.48656 10.6061 5.75791 10.3347 5.75791 9.9998C5.75791 9.66491 5.48656 9.39355 5.15166 9.39355ZM5.15166 10.3029C4.98447 10.3029 4.84854 10.167 4.84854 9.9998C4.84854 9.83262 4.98447 9.69668 5.15166 9.69668C5.31885 9.69668 5.45479 9.83262 5.45479 9.9998C5.45479 10.167 5.31885 10.3029 5.15166 10.3029ZM10.0001 9.69668C9.83291 9.69668 9.69697 9.83262 9.69697 9.9998C9.69697 10.167 9.83291 10.3029 10.0001 10.3029C10.1673 10.3029 10.3032 10.167 10.3032 9.9998C10.3032 9.83262 10.1673 9.69668 10.0001 9.69668Z"
            fill="#FFDA2D" />
        <path
            d="M9.99997 8.48486C9.16455 8.48486 8.48486 9.16455 8.48486 9.99997C8.48486 10.8354 9.16455 11.5151 9.99997 11.5151C10.8354 11.5151 11.5151 10.8354 11.5151 9.99997C11.5151 9.16455 10.8354 8.48486 9.99997 8.48486ZM9.99997 10.6062C9.66507 10.6062 9.39372 10.3349 9.39372 9.99997C9.39372 9.66507 9.66507 9.39372 9.99997 9.39372C10.3349 9.39372 10.6062 9.66507 10.6062 9.99997C10.6062 10.3349 10.3349 10.6062 9.99997 10.6062Z"
            fill="#FFDA2D" />
        <path
            d="M10.0003 9.39355C9.6654 9.39355 9.39404 9.66491 9.39404 9.9998C9.39404 10.3347 9.6654 10.6061 10.0003 10.6061C10.3352 10.6061 10.6065 10.3347 10.6065 9.9998C10.6065 9.66491 10.3352 9.39355 10.0003 9.39355ZM10.0003 10.3029C9.83311 10.3029 9.69717 10.167 9.69717 9.9998C9.69717 9.83262 9.83311 9.69668 10.0003 9.69668C10.1675 9.69668 10.3034 9.83262 10.3034 9.9998C10.3034 10.167 10.1675 10.3029 10.0003 10.3029ZM14.5456 9.9998C14.5456 10.167 14.6815 10.3029 14.8487 10.3029C15.0159 10.3029 15.1519 10.167 15.1519 9.9998C15.1519 9.83262 15.0159 9.69668 14.8487 9.69668C14.6815 9.69668 14.5456 9.83262 14.5456 9.9998Z"
            fill="#FFDA2D" />
        <path
            d="M13.3335 9.99997C13.3335 10.8354 14.0132 11.5151 14.8486 11.5151C15.684 11.5151 16.3637 10.8354 16.3637 9.99997C16.3637 9.16455 15.684 8.48486 14.8486 8.48486C14.0132 8.48486 13.3335 9.16455 13.3335 9.99997ZM15.4549 9.99997C15.4549 10.3349 15.1835 10.6062 14.8486 10.6062C14.5137 10.6062 14.2424 10.3349 14.2424 9.99997C14.2424 9.66507 14.5137 9.39372 14.8486 9.39372C15.1835 9.39372 15.4549 9.66507 15.4549 9.99997Z"
            fill="#FFDA2D" />
        <path
            d="M14.2422 9.9998C14.2422 10.3347 14.5135 10.6061 14.8484 10.6061C15.1833 10.6061 15.4547 10.3347 15.4547 9.9998C15.4547 9.66491 15.1833 9.39355 14.8484 9.39355C14.5135 9.39355 14.2422 9.66491 14.2422 9.9998ZM15.1516 9.9998C15.1516 10.167 15.0156 10.3029 14.8484 10.3029C14.6812 10.3029 14.5453 10.167 14.5453 9.9998C14.5453 9.83262 14.6812 9.69668 14.8484 9.69668C15.0156 9.69668 15.1516 9.83262 15.1516 9.9998Z"
            fill="#FFDA2D" />
        <path
            d="M10 0V8.4849C10.8354 8.4849 11.5151 9.16458 11.5151 10C11.5151 10.8354 10.8354 11.5151 10 11.5151V20C15.5141 20 20 15.5141 20 10C20 4.48594 15.5141 0 10 0ZM14.8484 11.5151C14.013 11.5151 13.3333 10.8354 13.3333 10C13.3333 9.16458 14.013 8.4849 14.8484 8.4849C15.6839 8.4849 16.3635 9.16458 16.3635 10C16.3635 10.8354 15.6839 11.5151 14.8484 11.5151Z"
            fill="#FF637B" />
        <path
            d="M8.4849 10C8.4849 9.16458 9.16458 8.4849 10 8.4849V0C4.48594 0 0 4.48594 0 10C0 15.5141 4.48594 20 10 20V11.5151C9.16458 11.5151 8.4849 10.8354 8.4849 10ZM5.15156 11.5151C4.31615 11.5151 3.63646 10.8354 3.63646 10C3.63646 9.16458 4.31615 8.4849 5.15156 8.4849C5.98698 8.4849 6.66667 9.16458 6.66667 10C6.66667 10.8354 5.98698 11.5151 5.15156 11.5151Z"
            fill="#FF637B" />
    </g>
    <defs>
        <clipPath id="clip0_801_6784">
            <rect fill="white" height="20" width="20" />
        </clipPath>
    </defs>
</svg>
