<svg fill="none" height="34" viewBox="0 0 34 34" width="34" xmlns="http://www.w3.org/2000/svg">
    <rect fill="#F0F7F5" height="34" rx="17" width="34" />
    <g clip-path="url(#clip0_16_3837)">
        <path
            d="M24.0395 7.92196C20.1436 4.02601 13.8502 4.02601 10.0042 7.92196C6.10823 11.8179 6.10823 18.0614 10.0042 21.9573L16.9969 29L23.9896 22.0073C27.8855 18.1114 27.8855 11.8179 24.0395 7.92196Z"
            fill="#F3705B" />
        <path
            d="M16.9969 21.8574C13.2008 21.8574 10.1041 18.7607 10.1041 14.9646C10.1041 11.1685 13.2008 8.07178 16.9969 8.07178C20.793 8.07178 23.8897 11.1685 23.8897 14.9646C23.8897 18.7607 20.7929 21.8574 16.9969 21.8574Z"
            fill="white" />
        <path
            d="M20.2435 11.5681C19.6441 11.0686 18.7451 10.8188 17.4464 10.8188H14.4995V19.1102H16.3476V16.8126H17.4964C18.7451 16.8126 19.6442 16.5629 20.2435 16.1134C20.8429 15.6139 21.1426 14.8646 21.1426 13.8657C21.1426 12.8167 20.8429 12.0675 20.2435 11.5681ZM18.8949 14.8147C18.6951 15.0644 18.2456 15.1643 17.6462 15.1643H16.3975V12.3673H17.4464C18.0458 12.3673 18.4953 12.4671 18.795 12.6669C19.0947 12.8667 19.2446 13.2164 19.2446 13.6659C19.2446 14.2153 19.0947 14.5649 18.8949 14.8147Z"
            fill="#435B6C" />
    </g>
    <defs>
        <clipPath id="clip0_16_3837">
            <rect fill="white" height="24" transform="translate(5 5)" width="24" />
        </clipPath>
    </defs>
</svg>
