<svg fill="none" height="34" viewBox="0 0 34 34" width="34" xmlns="http://www.w3.org/2000/svg">
    <rect fill="#F0F7F5" height="34" rx="17" width="34" />
    <path
        d="M21.7554 22.4497L13.053 25.9701L12.9624 26.0069C11.9127 26.4423 10.7087 25.9451 10.2733 24.895L5.15791 12.5742C4.72197 11.5245 5.21964 10.3205 6.26936 9.885L14.0797 6.64229C15.1299 6.20635 16.334 6.70402 16.7694 7.75323L17.3881 9.07969L21.0207 16.8656L21.7554 22.4497Z"
        fill="#FCC938" />
    <path
        d="M21.7554 22.4497L13.0531 25.9701L12.7082 25.8663C11.6203 25.5381 11.0041 24.3904 11.3323 23.302L15.1853 10.5301C15.4772 9.56217 16.4177 8.96751 17.3881 9.07968L21.0207 16.8656L21.7554 22.4497Z"
        fill="#E2A91B" />
    <path
        d="M28.9118 13.2791L25.0588 26.0515C24.7307 27.1394 23.5825 27.7557 22.4945 27.4274L15.7417 25.3902L14.3981 24.9847C13.3097 24.6565 12.6939 23.5088 13.0221 22.4204L16.8752 9.64845C17.2033 8.56053 18.351 7.94431 19.4389 8.27253L27.5359 10.7153C27.6098 10.7379 27.6818 10.7638 27.7514 10.7942C28.7032 11.1998 29.2175 12.2652 28.9118 13.2791Z"
        fill="#ED3B3B" />
</svg>
