<svg fill="none" height="24" viewBox="0 0 24 24" width="24" xmlns="http://www.w3.org/2000/svg">
    <g clip-path="url(#clip0_628_2057)">
        <mask style="mask-type:luminance" height="20" id="mask0_628_2057" maskUnits="userSpaceOnUse" width="24"
            x="0" y="2">
            <path d="M24 2H0V21.4286H24V2Z" fill="white" />
        </mask>
        <g mask="url(#mask0_628_2057)">
            <path
                d="M16.8393 10.0407C19.0464 10.0407 20.8407 8.24566 20.8407 6.03923C20.8407 3.83281 19.0464 2.03638 16.8393 2.03638C14.6321 2.03638 12.8379 3.83209 12.8379 6.03852C12.8379 8.24495 14.6329 10.0392 16.8393 10.0392V10.0407ZM16.8429 11.3264C16.0364 11.3264 15.265 11.4557 14.5493 11.7114C14.1036 11.8699 13.8707 12.3599 14.0286 12.8057C14.1743 13.2128 14.5943 13.4264 15.0071 13.3421C15.0464 13.3335 15.0857 13.3385 15.1257 13.3249C15.6779 13.1328 16.2586 13.0364 16.8436 13.0399C18.3007 13.0399 19.6679 13.6057 20.6943 14.6314C21.7179 15.6514 22.2907 17.0378 22.2864 18.4828C22.2864 18.8014 22.1621 19.1 21.9379 19.3264C21.7171 19.5492 21.4171 19.6749 21.1036 19.6749H16.4921C16.4321 19.6749 16.3793 19.6971 16.3229 19.7092C15.9264 19.7842 15.6393 20.1292 15.635 20.5321C15.635 21.0057 16.0193 21.3892 16.4921 21.3892H21.1036C21.875 21.3892 22.6007 21.0864 23.1493 20.5378C23.6979 19.9892 24 19.2599 24 18.4828C24.0057 16.5835 23.2521 14.7599 21.9057 13.4192C20.5657 12.0749 18.7421 11.3207 16.8429 11.3264ZM7.16071 10.0407C9.36714 10.0407 11.1621 8.24566 11.1621 6.03923C11.1621 3.83281 9.36714 2.03638 7.16071 2.03638C4.95429 2.03638 3.15929 3.83281 3.15929 6.03923C3.15929 8.24638 4.95357 10.0407 7.16071 10.0407ZM2.9 21.3871H11.4214C13.0221 21.3849 14.3193 20.0878 14.3214 18.4871C14.3214 14.5392 11.1086 11.3264 7.16071 11.3264C3.21286 11.3264 0 14.5392 0 18.4871C0.00214286 20.0878 1.29929 21.3849 2.9 21.3871Z"
                fill="#666666" />
        </g>
    </g>
    <defs>
        <clipPath id="clip0_628_2057">
            <rect fill="white" height="24" transform="translate(24) rotate(90)" width="24" />
        </clipPath>
    </defs>
</svg>
