<svg fill="none" height="24" viewBox="0 0 24 24" width="24" xmlns="http://www.w3.org/2000/svg">
    <path clip-rule="evenodd"
        d="M12 21.6C17.3019 21.6 21.6 17.302 21.6 12C21.6 6.69809 17.3019 2.40002 12 2.40002C6.69806 2.40002 2.39999 6.69809 2.39999 12C2.39999 17.302 6.69806 21.6 12 21.6ZM13.2 8.40002C13.2 7.73728 12.6627 7.20002 12 7.20002C11.3373 7.20002 10.8 7.73728 10.8 8.40002V10.8H8.39999C7.73725 10.8 7.19999 11.3373 7.19999 12C7.19999 12.6628 7.73725 13.2 8.39999 13.2H10.8V15.6C10.8 16.2628 11.3373 16.8 12 16.8C12.6627 16.8 13.2 16.2628 13.2 15.6V13.2H15.6C16.2627 13.2 16.8 12.6628 16.8 12C16.8 11.3373 16.2627 10.8 15.6 10.8H13.2V8.40002Z"
        fill="#666666" fill-rule="evenodd" />
</svg>
