<svg fill="none" height="24" viewBox="0 0 24 24" width="24" xmlns="http://www.w3.org/2000/svg">
    <g clip-path="url(#clip0_16_2922)">
        <path
            d="M19.5738 9.20142H16.0001C15.5327 9.20142 15.1537 9.58035 15.1537 10.0478V18.8929C15.1537 19.3604 15.5327 19.7393 16.0001 19.7393H19.5738C20.0413 19.7393 20.4202 19.3604 20.4202 18.8929V10.0478C20.4202 9.58035 20.0413 9.20142 19.5738 9.20142Z"
            fill="#FFC943" />
        <path d="M17.3518 9.20142H18.7854V19.7393H17.3518V9.20142Z" fill="#43567C" />
        <path
            d="M5.15453 4.5697H14.5818C14.9996 4.5697 15.4002 4.73564 15.6955 5.03101C15.9909 5.32638 16.1568 5.72699 16.1568 6.1447V22.4249C16.1568 22.8427 15.9909 23.2433 15.6955 23.5386C15.4002 23.834 14.9996 24 14.5818 24H5.15453C4.73681 24 4.33621 23.834 4.04084 23.5386C3.74547 23.2433 3.57953 22.8427 3.57953 22.4249V6.14451C3.57958 5.72683 3.74554 5.32627 4.0409 5.03094C4.33627 4.73561 4.73685 4.5697 5.15453 4.5697Z"
            fill="#43567C" />
        <path
            d="M14.0801 7.85046H5.65647C5.4473 7.85046 5.27773 8.02004 5.27773 8.22921V12.159C5.27773 12.3682 5.4473 12.5378 5.65647 12.5378H14.0801C14.2893 12.5378 14.4588 12.3682 14.4588 12.159V8.22921C14.4588 8.02004 14.2893 7.85046 14.0801 7.85046Z"
            fill="#6BB3D9" />
        <path
            d="M6.65323 13.8578H5.60623C5.4248 13.8578 5.27773 14.0049 5.27773 14.1863V15.2333C5.27773 15.4147 5.4248 15.5618 5.60623 15.5618H6.65323C6.83465 15.5618 6.98173 15.4147 6.98173 15.2333V14.1863C6.98173 14.0049 6.83465 13.8578 6.65323 13.8578Z"
            fill="#BAC2D3" />
        <path
            d="M9.14547 13.8578H8.09847C7.91705 13.8578 7.76997 14.0049 7.76997 14.1863V15.2333C7.76997 15.4147 7.91705 15.5618 8.09847 15.5618H9.14547C9.3269 15.5618 9.47397 15.4147 9.47397 15.2333V14.1863C9.47397 14.0049 9.3269 13.8578 9.14547 13.8578Z"
            fill="#BAC2D3" />
        <path
            d="M11.6379 13.8578H10.5909C10.4095 13.8578 10.2624 14.0049 10.2624 14.1863V15.2333C10.2624 15.4147 10.4095 15.5618 10.5909 15.5618H11.6379C11.8193 15.5618 11.9664 15.4147 11.9664 15.2333V14.1863C11.9664 14.0049 11.8193 13.8578 11.6379 13.8578Z"
            fill="#BAC2D3" />
        <path
            d="M14.1302 13.8578H13.0832C12.9017 13.8578 12.7547 14.0049 12.7547 14.1863V15.2333C12.7547 15.4147 12.9017 15.5618 13.0832 15.5618H14.1302C14.3116 15.5618 14.4587 15.4147 14.4587 15.2333V14.1863C14.4587 14.0049 14.3116 13.8578 14.1302 13.8578Z"
            fill="#BAC2D3" />
        <path
            d="M6.65323 16.3726H5.60623C5.4248 16.3726 5.27773 16.5196 5.27773 16.7011V17.7481C5.27773 17.9295 5.4248 18.0766 5.60623 18.0766H6.65323C6.83465 18.0766 6.98173 17.9295 6.98173 17.7481V16.7011C6.98173 16.5196 6.83465 16.3726 6.65323 16.3726Z"
            fill="#BAC2D3" />
        <path
            d="M9.14547 16.3726H8.09847C7.91705 16.3726 7.76997 16.5196 7.76997 16.7011V17.7481C7.76997 17.9295 7.91705 18.0766 8.09847 18.0766H9.14547C9.3269 18.0766 9.47397 17.9295 9.47397 17.7481V16.7011C9.47397 16.5196 9.3269 16.3726 9.14547 16.3726Z"
            fill="#BAC2D3" />
        <path
            d="M11.6379 16.3726H10.5909C10.4095 16.3726 10.2624 16.5196 10.2624 16.7011V17.7481C10.2624 17.9295 10.4095 18.0766 10.5909 18.0766H11.6379C11.8193 18.0766 11.9664 17.9295 11.9664 17.7481V16.7011C11.9664 16.5196 11.8193 16.3726 11.6379 16.3726Z"
            fill="#BAC2D3" />
        <path
            d="M14.1302 16.3726H13.0832C12.9017 16.3726 12.7547 16.5196 12.7547 16.7011V17.7481C12.7547 17.9295 12.9017 18.0766 13.0832 18.0766H14.1302C14.3116 18.0766 14.4587 17.9295 14.4587 17.7481V16.7011C14.4587 16.5196 14.3116 16.3726 14.1302 16.3726Z"
            fill="#BAC2D3" />
        <path
            d="M6.65323 18.8873H5.60623C5.4248 18.8873 5.27773 19.0344 5.27773 19.2158V20.2628C5.27773 20.4443 5.4248 20.5913 5.60623 20.5913H6.65323C6.83465 20.5913 6.98173 20.4443 6.98173 20.2628V19.2158C6.98173 19.0344 6.83465 18.8873 6.65323 18.8873Z"
            fill="#BAC2D3" />
        <path
            d="M9.14547 18.8873H8.09847C7.91705 18.8873 7.76997 19.0344 7.76997 19.2158V20.2628C7.76997 20.4443 7.91705 20.5913 8.09847 20.5913H9.14547C9.3269 20.5913 9.47397 20.4443 9.47397 20.2628V19.2158C9.47397 19.0344 9.3269 18.8873 9.14547 18.8873Z"
            fill="#BAC2D3" />
        <path
            d="M11.6379 18.8873H10.5909C10.4095 18.8873 10.2624 19.0344 10.2624 19.2158V20.2628C10.2624 20.4443 10.4095 20.5913 10.5909 20.5913H11.6379C11.8193 20.5913 11.9664 20.4443 11.9664 20.2628V19.2158C11.9664 19.0344 11.8193 18.8873 11.6379 18.8873Z"
            fill="#BAC2D3" />
        <path
            d="M14.1302 18.8873H13.0832C12.9017 18.8873 12.7547 19.0344 12.7547 19.2158V20.2628C12.7547 20.4443 12.9017 20.5913 13.0832 20.5913H14.1302C14.3116 20.5913 14.4587 20.4443 14.4587 20.2628V19.2158C14.4587 19.0344 14.3116 18.8873 14.1302 18.8873Z"
            fill="#BAC2D3" />
        <path
            d="M13.4426 5.87451H6.29379C6.18816 5.87451 6.10254 5.96014 6.10254 6.06576V6.43251C6.10254 6.53814 6.18816 6.62376 6.29379 6.62376H13.4426C13.5482 6.62376 13.6339 6.53814 13.6339 6.43251V6.06576C13.6339 5.96014 13.5482 5.87451 13.4426 5.87451Z"
            fill="#2F3A5A" />
        <path d="M6.61028 0H13.1261V6.24919H6.61028V0Z" fill="#DBE2EB" />
        <path
            d="M12.1044 1.54749H7.63123C7.5815 1.54749 7.53381 1.52773 7.49864 1.49257C7.46348 1.4574 7.44373 1.40971 7.44373 1.35999C7.44373 1.31026 7.46348 1.26257 7.49864 1.2274C7.53381 1.19224 7.5815 1.17249 7.63123 1.17249H12.1044C12.1541 1.17249 12.2018 1.19224 12.237 1.2274C12.2722 1.26257 12.2919 1.31026 12.2919 1.35999C12.2919 1.40971 12.2722 1.4574 12.237 1.49257C12.2018 1.52773 12.1541 1.54749 12.1044 1.54749Z"
            fill="#BAC2D3" />
        <path
            d="M12.1044 3.15222H7.63123C7.5815 3.15222 7.53381 3.13247 7.49864 3.0973C7.46348 3.06214 7.44373 3.01445 7.44373 2.96472C7.44373 2.91499 7.46348 2.8673 7.49864 2.83214C7.53381 2.79698 7.5815 2.77722 7.63123 2.77722H12.1044C12.1541 2.77722 12.2018 2.79698 12.237 2.83214C12.2722 2.8673 12.2919 2.91499 12.2919 2.96472C12.2919 3.01445 12.2722 3.06214 12.237 3.0973C12.2018 3.13247 12.1541 3.15222 12.1044 3.15222Z"
            fill="#BAC2D3" />
        <path
            d="M12.1044 4.7572H7.63123C7.5815 4.7572 7.53381 4.73745 7.49864 4.70228C7.46348 4.66712 7.44373 4.61943 7.44373 4.5697C7.44373 4.51997 7.46348 4.47228 7.49864 4.43712C7.53381 4.40196 7.5815 4.3822 7.63123 4.3822H12.1044C12.1541 4.3822 12.2018 4.40196 12.237 4.43712C12.2722 4.47228 12.2919 4.51997 12.2919 4.5697C12.2919 4.61943 12.2722 4.66712 12.237 4.70228C12.2018 4.73745 12.1541 4.7572 12.1044 4.7572Z"
            fill="#BAC2D3" />
        <path
            d="M6.78391 21.5195H5.47554C5.36629 21.5195 5.27773 21.6081 5.27773 21.7173V22.2549C5.27773 22.3642 5.36629 22.4527 5.47554 22.4527H6.78391C6.89316 22.4527 6.98173 22.3642 6.98173 22.2549V21.7173C6.98173 21.6081 6.89316 21.5195 6.78391 21.5195Z"
            fill="#EF5361" />
        <path
            d="M9.27616 21.5195H7.96779C7.85854 21.5195 7.76997 21.6081 7.76997 21.7173V22.2549C7.76997 22.3642 7.85854 22.4527 7.96779 22.4527H9.27616C9.38541 22.4527 9.47397 22.3642 9.47397 22.2549V21.7173C9.47397 21.6081 9.38541 21.5195 9.27616 21.5195Z"
            fill="#8CCFB5" />
        <path
            d="M11.7686 21.5195H10.4602C10.351 21.5195 10.2624 21.6081 10.2624 21.7173V22.2549C10.2624 22.3642 10.351 22.4527 10.4602 22.4527H11.7686C11.8778 22.4527 11.9664 22.3642 11.9664 22.2549V21.7173C11.9664 21.6081 11.8778 21.5195 11.7686 21.5195Z"
            fill="#6BB3D9" />
        <path
            d="M14.2608 21.5195H12.9525C12.8432 21.5195 12.7547 21.6081 12.7547 21.7173V22.2549C12.7547 22.3642 12.8432 22.4527 12.9525 22.4527H14.2608C14.3701 22.4527 14.4587 22.3642 14.4587 22.2549V21.7173C14.4587 21.6081 14.3701 21.5195 14.2608 21.5195Z"
            fill="#FFC943" />
    </g>
    <defs>
        <clipPath id="clip0_16_2922">
            <rect fill="white" height="24" width="24" />
        </clipPath>
    </defs>
</svg>
