<svg fill="none" height="20" viewBox="0 0 20 20" width="20" xmlns="http://www.w3.org/2000/svg">
    <g clip-path="url(#clip0_801_6796)">
        <path clip-rule="evenodd" d="M14.7392 8.59977C14.6572 8.59977 14.5869 8.56462 14.54 8.49432C14.4932 8.41231 14.4932 8.31858 14.54 8.24828L12.6186 4.9208C12.5365 4.9208 12.4545 4.88565 12.4194 4.80364C12.3491 4.69819 12.3842 4.55759 12.5014 4.48729L12.5717 4.45214C13.1106 4.15923 13.7316 4.08893 14.3292 4.26468C14.915 4.42871 15.4188 4.81535 15.7234 5.35431C16.0398 5.89327 16.1218 6.52596 15.9577 7.1235C15.8054 7.72104 15.4305 8.23656 14.8915 8.55291L14.8564 8.57634C14.8212 8.58805 14.7861 8.59977 14.7392 8.59977Z"
            fill="#FCC938"
            fill-rule="evenodd" />
        <path clip-rule="evenodd" d="M9.27948 19.4844C8.84597 19.4844 8.44762 19.3086 8.14299 19.0157L5.3076 16.1803C5.21387 16.0866 5.21387 15.946 5.3076 15.8523C5.3779 15.782 5.48335 15.7585 5.56537 15.8054L7.74463 14.54C7.75634 14.5049 7.76806 14.4697 7.80321 14.4463C7.89694 14.3525 8.03754 14.3525 8.13127 14.4463L10.416 16.731C10.7206 17.0356 10.8846 17.4457 10.8846 17.8675C10.8846 18.301 10.7206 18.7111 10.416 19.0157C10.1114 19.3086 9.71299 19.4844 9.27948 19.4844Z"
            fill="#ED3B3B"
            fill-rule="evenodd" />
        <path clip-rule="evenodd" d="M10.0295 13.6498C9.93581 13.6498 9.84208 13.6029 9.80693 13.4975C9.78349 13.4272 9.79521 13.3334 9.84208 13.2749L5.91706 6.4793C5.84676 6.49102 5.76475 6.45587 5.70617 6.39729C5.62415 6.29184 5.63587 6.15124 5.74132 6.06923C5.76475 6.0458 8.74073 3.58534 10.135 0.656223C10.135 0.63279 10.1584 0.609357 10.1701 0.585924C10.1936 0.562491 10.217 0.550774 10.2404 0.539058C10.2639 0.527341 10.299 0.515625 10.3342 0.515625C10.3693 0.515625 10.3928 0.515625 10.4279 0.527341C10.4513 0.539058 10.4748 0.562491 10.4982 0.574207C10.5216 0.59764 10.5333 0.609357 10.5451 0.63279L17.2234 12.1969C17.2352 12.2087 17.2469 12.2321 17.2469 12.2555C17.2586 12.2907 17.2586 12.3141 17.2469 12.3493C17.2469 12.3844 17.2352 12.4078 17.2234 12.4313C17.2 12.4664 17.1766 12.4899 17.1414 12.5133C17.1297 12.525 17.0946 12.5367 17.0711 12.5367C17.0477 12.5484 17.0243 12.5484 17.0008 12.5484C13.7554 12.279 10.1467 13.6263 10.1116 13.6381C10.0881 13.6498 10.053 13.6498 10.0295 13.6498Z"
            fill="#FF637B"
            fill-rule="evenodd" />
        <path clip-rule="evenodd" d="M17.8559 4.35858C17.7738 4.35858 17.6918 4.31172 17.6567 4.24142C17.5864 4.12425 17.6215 3.98366 17.7387 3.91336L19.1095 3.12835C19.2267 3.05806 19.3673 3.09321 19.4259 3.21037C19.4962 3.32753 19.461 3.46813 19.3438 3.52671L17.973 4.32343C17.9379 4.34687 17.891 4.35858 17.8559 4.35858Z"
            fill="#AED0FF"
            fill-rule="evenodd" />
        <path clip-rule="evenodd" d="M19.7655 7.61578C19.7421 7.61578 19.7186 7.61578 19.6952 7.60407L18.1721 7.19399C18.0432 7.17056 17.9729 7.04168 18.008 6.91279C18.0432 6.78391 18.1721 6.71361 18.2892 6.74876L19.8241 7.15884C19.9413 7.19399 20.0233 7.32287 19.9881 7.44003C19.9647 7.54548 19.8592 7.61578 19.7655 7.61578Z"
            fill="#AED0FF"
            fill-rule="evenodd" />
        <path clip-rule="evenodd" d="M15.571 2.60108C15.5476 2.60108 15.5358 2.60108 15.5124 2.58937C15.3835 2.56593 15.3132 2.43705 15.3484 2.30817L15.7584 0.773315C15.7936 0.65615 15.9225 0.574135 16.0396 0.609284C16.1685 0.644433 16.2388 0.773315 16.2037 0.902196L15.7936 2.42534C15.7702 2.53078 15.6764 2.60108 15.571 2.60108Z"
            fill="#AED0FF"
            fill-rule="evenodd" />
        <path clip-rule="evenodd" d="M4.38206 16.462C3.23385 16.462 2.16765 15.841 1.60526 14.8568L0.433612 12.8298C-0.456839 11.295 0.0704018 9.33834 1.60526 8.44789L4.17116 6.97162C4.28833 6.90132 4.42893 6.93647 4.48751 7.05363L8.63513 14.2241C8.65857 14.2827 8.67028 14.3413 8.65857 14.3999C8.63513 14.4702 8.59999 14.517 8.5414 14.5522L5.9755 16.0284C5.49512 16.3096 4.94445 16.462 4.38206 16.462Z"
            fill="#FF637B"
            fill-rule="evenodd" />
        <path clip-rule="evenodd" d="M8.43614 14.5755C8.35413 14.5755 8.27211 14.5403 8.22525 14.4583L4.08934 7.28782C4.05419 7.22924 4.04247 7.17066 4.0659 7.11208C4.07762 7.05349 4.11277 6.99491 4.17135 6.97148L5.77651 6.04588C5.82337 6.01073 5.89367 5.99901 5.95225 6.02245C6.01083 6.03416 6.0577 6.08103 6.09285 6.12789L10.2288 13.2984C10.2991 13.4155 10.2639 13.5561 10.1467 13.6264L8.55331 14.552C8.50644 14.5637 8.47129 14.5755 8.43614 14.5755Z"
            fill="#FFCE0D"
            fill-rule="evenodd" />
    </g>
    <defs>
        <clipPath id="clip0_801_6796">
            <rect fill="white" height="20" width="20" />
        </clipPath>
    </defs>
</svg>
