<svg fill="none" height="24" viewBox="0 0 24 24" width="24" xmlns="http://www.w3.org/2000/svg">
    <g clip-path="url(#clip0_16_3047)">
        <path
            d="M19.8389 22H4.1611C2.96758 22 2 21.0324 2 19.8389V4.1611C2 2.96758 2.96758 2 4.1611 2H19.8389C21.0324 2 22 2.96754 22 4.1611V19.8389C22 21.0324 21.0324 22 19.8389 22Z"
            fill="black" />
        <path
            d="M6.73177 10.4312V12.2004C6.73177 12.7911 6.47024 13.0364 5.85689 13.0364C5.24343 13.0364 4.9819 12.7911 4.9819 12.2004V10.3536H4.39119C4.33945 10.3536 4.31366 10.3796 4.31366 10.4312V12.2294C4.31366 13.2173 4.9432 13.5627 5.85689 13.5627C6.77043 13.5627 7.39997 13.2173 7.39997 12.2294V10.3536H6.80926C6.75752 10.3536 6.73177 10.3796 6.73177 10.4312Z"
            fill="white" />
        <path
            d="M15.2962 10.867C15.3446 10.867 15.3672 10.8509 15.3835 10.8154L15.5546 10.3925C15.5643 10.3667 15.5546 10.3536 15.5287 10.3536H13.1493C12.9266 10.3536 12.8427 10.4214 12.8427 10.5731V13.3206C12.8427 13.4498 12.9072 13.5079 13.0785 13.5079H15.2963C15.3447 13.5079 15.3673 13.4917 15.3835 13.4562L15.5547 13.0332C15.5644 13.0074 15.5547 12.9946 15.5287 12.9946H13.4981V12.436C13.4981 12.2423 13.6046 12.155 13.8919 12.155H14.7733C14.8218 12.155 14.8442 12.139 14.8605 12.1035L15.0251 11.6966C15.0348 11.6708 15.0251 11.6579 14.9993 11.6579H13.4981V10.867H15.2962Z"
            fill="white" />
        <path
            d="M11.1077 11.8453C11.3658 11.7096 11.4725 11.4546 11.4725 11.1544C11.4725 10.4571 10.9042 10.3538 10.3167 10.3538H8.9737C8.75084 10.3538 8.66699 10.4216 8.66699 10.5733V13.3207C8.66699 13.4498 8.73145 13.5079 8.90273 13.5079H10.5556C11.1787 13.5079 11.6242 13.2658 11.6242 12.6362C11.6242 12.2585 11.4628 11.9388 11.1077 11.8453ZM9.32201 10.8605H10.3651C10.7139 10.8605 10.8107 10.992 10.8107 11.2641C10.8107 11.5363 10.7139 11.6677 10.3651 11.6677H9.32201V10.8605ZM10.4878 13.0011H9.32201V12.4231C9.32201 12.2295 9.42864 12.1423 9.71596 12.1423H10.4878C10.859 12.1423 10.9624 12.2844 10.9624 12.575C10.9624 12.8654 10.859 13.0011 10.4878 13.0011Z"
            fill="white" />
        <path
            d="M19.6788 13.453L18.9717 12.2391C19.3237 12.1487 19.6078 11.9163 19.6078 11.3254C19.6078 10.5604 19.1331 10.3536 18.3487 10.3536H16.9992C16.7763 10.3536 16.6924 10.4214 16.6924 10.5733V13.4304C16.6924 13.482 16.7182 13.5079 16.77 13.5079H17.3478V12.5879C17.3478 12.3941 17.4543 12.3069 17.7418 12.3069H18.3228L18.9621 13.4562C18.9815 13.4885 19.0007 13.5079 19.0493 13.5079H19.6497C19.6917 13.5079 19.6917 13.4724 19.6788 13.453ZM18.4455 11.8162H17.3478V10.8607H18.4455C18.8555 10.8607 18.9459 11.0189 18.9459 11.3383C18.9459 11.6613 18.8555 11.8162 18.4455 11.8162Z"
            fill="white" />
    </g>
    <defs>
        <clipPath id="clip0_16_3047">
            <rect fill="white" height="20" transform="translate(2 2)" width="20" />
        </clipPath>
    </defs>
</svg>
