<svg fill="none" height="18" viewBox="0 0 18 18" width="18" xmlns="http://www.w3.org/2000/svg">
    <path
        d="M7.30323 0.68305C7.30339 0.683246 7.30355 0.683441 7.30372 0.683636L9.25853 3.05038H3.57845L6.57057 0.617393C6.67552 0.534058 6.81369 0.491514 6.95518 0.503399C7.02438 0.510047 7.09084 0.529832 7.15066 0.56099C7.21066 0.59224 7.2623 0.634038 7.30323 0.68305ZM7.5 11.2568V12.2202C7.5 13.3809 7.97883 14.4901 8.82469 15.3049C9.66991 16.1191 10.8124 16.5734 12 16.5734H16.5V17.0367C16.5 17.1534 16.452 17.2693 16.3602 17.3578C16.2678 17.4468 16.1385 17.5 16 17.5H1C0.861485 17.5 0.732234 17.4468 0.63978 17.3578L0.293238 17.7175L0.639778 17.3578C0.547959 17.2693 0.5 17.1534 0.5 17.0367V6.4403C0.5 6.32359 0.547958 6.20769 0.639778 6.11924C0.732235 6.03018 0.861487 5.977 1 5.977H16C16.1385 5.977 16.2678 6.03018 16.3602 6.11924C16.452 6.20769 16.5 6.32359 16.5 6.4403V6.90361H12C10.8124 6.90361 9.66991 7.35789 8.82469 8.1721C7.97883 8.98693 7.5 10.0961 7.5 11.2568ZM12 9.83023H17C17.1385 9.83023 17.2678 9.88341 17.3602 9.97247C17.452 10.0609 17.5 10.1768 17.5 10.2935V13.1835C17.5 13.3002 17.452 13.4161 17.3602 13.5045C17.2678 13.5936 17.1385 13.6468 17 13.6468H12C11.5963 13.6468 11.2127 13.4921 10.9327 13.2224C10.6533 12.9533 10.5 12.5924 10.5 12.2202V11.2568C10.5 10.8846 10.6533 10.5237 10.9327 10.2546C11.2127 9.9849 11.5963 9.83023 12 9.83023ZM12.6738 12.9599C12.9199 13.1183 13.2074 13.2018 13.5 13.2018C13.8919 13.2018 14.2714 13.052 14.554 12.7798C14.8372 12.5069 15 12.1328 15 11.7385C15 11.4448 14.9095 11.1594 14.7423 10.9183C14.5753 10.6775 14.3399 10.4926 14.068 10.3841C13.7962 10.2757 13.4982 10.2476 13.2108 10.3026C12.9234 10.3577 12.6569 10.4941 12.446 10.6972C12.2349 10.9006 12.0889 11.162 12.0295 11.4495C11.9702 11.7371 12.0008 12.035 12.1168 12.3047C12.2326 12.5741 12.4275 12.8014 12.6738 12.9599ZM11.3025 0.682167L13.2585 3.05038H11.9985L10.5075 1.24563C10.5075 1.24561 10.5075 1.2456 10.5075 1.24559C10.4278 1.14909 10.3936 1.02978 10.4074 0.91357C10.4211 0.797077 10.4829 0.685631 10.5862 0.60647C10.6901 0.526826 10.826 0.488117 10.9637 0.503207C11.1012 0.518282 11.2222 0.58495 11.3025 0.682167Z"
        fill="#808080" stroke="#808080" />
</svg>
